<svg xmlns="http://www.w3.org/2000/svg" viewBox="0 0 1920 1080" role="img" aria-labelledby="title desc"><title id="title">Alperler premium hero</title><desc id="desc">Yüksekova dağlarından esinlenen, özgün siyah spor otomobil ve premium showroom sahnesi</desc><defs><linearGradient id="sky" x1="0" y1="0" x2="0" y2="1"><stop stop-color="#111827"/><stop offset=".48" stop-color="#3A2A27"/><stop offset=".7" stop-color="#B46A32"/><stop offset="1" stop-color="#10151D"/></linearGradient><linearGradient id="gold" x1="0" y1="0" x2="1" y2="1"><stop stop-color="#FFE49A"/><stop offset=".35" stop-color="#D4AF37"/><stop offset="1" stop-color="#845A11"/></linearGradient><linearGradient id="car" x1="0" y1="0" x2="1" y2="1"><stop stop-color="#303846"/><stop offset=".22" stop-color="#090C12"/><stop offset=".62" stop-color="#171D26"/><stop offset="1" stop-color="#020305"/></linearGradient><linearGradient id="road" x1="0" y1="0" x2="0" y2="1"><stop stop-color="#1B2028"/><stop offset="1" stop-color="#05070A"/></linearGradient><linearGradient id="veil" x1="0" y1="0" x2="1" y2="0"><stop stop-color="#03060B" stop-opacity=".98"/><stop offset=".44" stop-color="#03060B" stop-opacity=".83"/><stop offset=".72" stop-color="#03060B" stop-opacity=".28"/><stop offset="1" stop-color="#03060B" stop-opacity=".08"/></linearGradient><radialGradient id="sun"><stop stop-color="#FFF0B0"/><stop offset=".28" stop-color="#ECA44E" stop-opacity=".9"/><stop offset="1" stop-color="#ECA44E" stop-opacity="0"/></radialGradient><filter id="blur"><feGaussianBlur stdDeviation="18"/></filter><filter id="shadow"><feDropShadow dx="0" dy="25" stdDeviation="24" flood-color="#000" flood-opacity=".75"/></filter></defs><rect width="1920" height="1080" fill="url(#sky)"/><circle cx="1440" cy="330" r="220" fill="url(#sun)" opacity=".7"/><g opacity=".88"><path d="M0 590L238 376l167 132 205-238 165 175 211-249 227 270 153-140 330 314v230H0z" fill="#0A1017"/><path d="M0 625l245-187 162 119 203-214 164 151 212-226 232 236 149-119 340 278v172H0z" fill="#111820"/><path d="M521 371l89-99 48 62 49-28-95 92zM920 349l67-81 55 63 50-31-102 93zM1174 425l43-51 45 39 31-16-67 62z" fill="#E9E6DE" opacity=".82"/></g><g opacity=".68"><path d="M0 760c284-71 480-79 739-18 256 60 518 52 1181-110v448H0z" fill="#090D12"/><path d="M1040 1080c86-192 198-302 352-382 140-74 289-101 528-117v499z" fill="url(#road)"/><path d="M1287 1080c48-148 126-250 246-321 110-65 235-93 387-109" fill="none" stroke="#D4AF37" stroke-width="8" opacity=".6"/><path d="M1370 1080c46-126 109-208 204-268 87-55 189-84 346-110" fill="none" stroke="#B9141E" stroke-width="3" opacity=".68"/></g><g transform="translate(1430 430)" opacity=".95"><path d="M0 250V0h395v330H42z" fill="#070B10" stroke="#2D3540" stroke-width="4"/><path d="M36 54h323v166H36z" fill="#131922" stroke="#D4AF37" stroke-width="3"/><path d="M65 54v166M123 54v166M181 54v166M239 54v166M297 54v166" stroke="#8E6724" stroke-width="2" opacity=".7"/><path d="M36 222h323" stroke="#B9141E" stroke-width="4"/><path d="M20 19h355" stroke="url(#gold)" stroke-width="8"/><ellipse cx="185" cy="177" rx="112" ry="43" fill="#D4AF37" opacity=".12" filter="url(#blur)"/></g><g transform="translate(955 568)" filter="url(#shadow)"><ellipse cx="360" cy="360" rx="410" ry="72" fill="#000" opacity=".7"/><path d="M55 278c42-113 116-172 226-205 82-25 200-27 307-1 104 25 183 81 235 173l75 26c31 11 51 37 55 73l-9 38H21l-10-55c8-25 22-40 44-49z" fill="url(#car)" stroke="#485260" stroke-width="5"/><path d="M245 97c83-30 220-35 339-2 57 16 105 45 144 87l-414 4-96-23z" fill="#05090E" stroke="#646E7B" stroke-width="4"/><path d="M331 111l8 70M605 111l-7 70" stroke="#B8B4AA" stroke-width="3" opacity=".55"/><path d="M72 279c51-36 107-51 166-46l-30 40-120 22z" fill="#E8EEF5" opacity=".92"/><path d="M738 236c71 0 121 18 158 54l-136-12z" fill="#E8EEF5" opacity=".92"/><path d="M39 325h188" stroke="#B9141E" stroke-width="11"/><path d="M744 327h176" stroke="#B9141E" stroke-width="11"/><path d="M130 265c67-48 143-69 224-64M588 202c82 7 148 28 204 67" fill="none" stroke="url(#gold)" stroke-width="5" opacity=".7"/><path d="M360 324h242l40 58H317z" fill="#080B10" stroke="#D4AF37" stroke-width="4"/><path d="M413 349h137" stroke="#F4F0E5" stroke-width="7" opacity=".86"/><path d="M475 306l18-21 18 21-18 19z" fill="#D4AF37"/><circle cx="217" cy="363" r="89" fill="#07090C" stroke="#202630" stroke-width="12"/><circle cx="217" cy="363" r="53" fill="#161B22" stroke="#D4AF37" stroke-width="8"/><circle cx="217" cy="363" r="14" fill="#B9141E"/><circle cx="742" cy="363" r="89" fill="#07090C" stroke="#202630" stroke-width="12"/><circle cx="742" cy="363" r="53" fill="#161B22" stroke="#D4AF37" stroke-width="8"/><circle cx="742" cy="363" r="14" fill="#B9141E"/><path d="M176 362h82M216 322v82M701 362h82M741 322v82" stroke="#B8B4AA" stroke-width="5" opacity=".75"/></g><rect width="1920" height="1080" fill="url(#veil)"/><rect y="0" width="1920" height="1080" fill="none" stroke="#D4AF37" stroke-opacity=".08" stroke-width="3"/></svg>